<?xml version="1.0" encoding="UTF-8"?>
<svg width="74px" height="37px" viewBox="0 0 74 37" version="1.1" xmlns="http://www.w3.org/2000/svg" xmlns:xlink="http://www.w3.org/1999/xlink">
    <title>Shape</title>
    <g id="Symbols" stroke="none" stroke-width="1" fill="none" fill-rule="evenodd">
        <g id="Header/1" transform="translate(-16.000000, -48.000000)" fill="#000000" fill-rule="nonzero">
            <g id="MTN_Logo" transform="translate(16.000000, 48.000000)">
                <path d="M37,0 C16.5655937,0 0,8.28279687 0,18.5 C0,28.7172031 16.5655937,37 37,37 C57.4344063,37 74,28.7172031 74,18.5 C74,8.28279687 57.4344063,0 37,0 Z M37,34.0793125 C18.1785625,34.0793125 2.9206875,27.1042344 2.9206875,18.5 C2.9206875,9.89576562 18.1785625,2.9206875 37,2.9206875 C55.8214375,2.9206875 71.0793125,9.89576563 71.0793125,18.5 C71.0793125,27.1042344 55.8214375,34.0793125 37,34.0793125 Z M32.3339531,15.2544062 L32.3339531,12.3331406 L42.772,12.3331406 L42.772,15.2544062 L39.0141875,15.2544062 L39.0141875,24.6668594 L36.0923437,24.6668594 L36.0923437,15.2544062 L32.3339531,15.2544062 Z M55.3716563,12.3331406 L55.3716563,24.6668594 L52.4509688,24.6668594 L47.1536094,17.3246719 L47.1536094,24.6668594 L44.2329219,24.6668594 L44.2329219,12.3331406 L47.1536094,12.3331406 L52.4509688,19.6753281 L52.4509688,12.3331406 L55.3716563,12.3331406 Z M18.541625,24.6668594 L18.541625,12.3331406 L21.4623125,12.3331406 L24.7073281,17.3246719 L27.9523437,12.3331406 L30.871875,12.3331406 L30.871875,24.6668594 L27.9523437,24.6668594 L27.9523437,17.690625 L25.7369687,21.0957812 L23.6776875,21.0957812 L21.4623125,17.690625 L21.4623125,24.6668594 L18.541625,24.6668594 Z" id="Shape"></path>
            </g>
        </g>
    </g>
</svg>